<?xml version="1.0" encoding="UTF-8"?><svg id="Layer_2" xmlns="http://www.w3.org/2000/svg" width="101.41" height="38" viewBox="0 0 101.41 38"><defs><style>.cls-1{fill:#fff;}</style></defs><g id="Layer_2-2"><g id="Layer_2-2"><g id="Layer_1-2"><polygon class="cls-1" points="50.1 0 50.58 1.55 52.24 1.55 50.93 2.62 51.41 4.15 50.1 3.2 48.79 4.15 49.26 2.62 47.96 1.55 49.62 1.55 50.1 0"/><polygon class="cls-1" points="63.41 5.46 62.69 7 63.87 8.2 62.21 7.95 61.5 9.37 61.14 7.73 59.6 7.47 61.03 6.78 60.79 5.1 61.97 6.3 63.41 5.46"/><polygon class="cls-1" points="63.51 32.43 61.97 31.7 60.79 32.9 61.03 31.22 59.6 30.53 61.26 30.16 61.5 28.5 62.21 30.05 63.87 29.8 62.69 31 63.51 32.43"/><polygon class="cls-1" points="50.1 38 49.62 36.45 47.96 36.45 49.26 35.38 48.79 33.85 50.1 34.8 51.53 33.85 50.93 35.38 52.36 36.45 50.69 36.45 50.1 38"/><polygon class="cls-1" points="36.8 32.53 37.51 31 36.32 29.8 37.99 30.05 38.81 28.63 39.06 30.27 40.71 30.53 39.17 31.22 39.41 32.9 38.34 31.7 36.8 32.53"/><polygon class="cls-1" points="36.8 5.57 38.22 6.3 39.41 5.1 39.17 6.78 40.71 7.47 39.06 7.83 38.71 9.5 37.99 7.95 36.32 8.2 37.51 7 36.8 5.57"/><polygon class="cls-1" points="33.11 11.53 34.78 11.75 35.49 10.32 35.73 11.88 37.39 12.22 35.85 12.95 36.44 14.48 35.01 13.43 33.47 14.12 34.19 12.7 33.11 11.53"/><polygon class="cls-1" points="57.34 1.42 57.22 3.08 58.76 3.67 57.11 4.15 56.99 5.83 56.04 4.4 54.49 4.75 55.56 3.45 54.61 2.03 56.16 2.72 57.34 1.42"/><polygon class="cls-1" points="57.34 36.58 56.28 35.28 54.73 35.87 55.68 34.44 54.49 33.25 56.16 33.6 56.99 32.17 57.22 33.85 58.76 34.2 57.22 34.91 57.34 36.58"/><polygon class="cls-1" points="42.97 36.58 43.09 34.91 41.55 34.33 43.21 33.85 43.33 32.17 44.16 33.6 45.83 33.25 44.76 34.55 45.59 35.97 44.04 35.28 42.97 36.58"/><polygon class="cls-1" points="42.86 1.42 43.92 2.72 45.46 2.13 44.64 3.56 45.71 4.75 44.04 4.4 43.21 5.83 43.09 4.15 41.43 3.8 42.97 3.08 42.86 1.42"/><path class="cls-1" d="m12.46,15.44l-1.66,1.66c-1.19-1.19-2.5-1.9-3.93-1.9-1.19,0-2.25.48-3.08,1.3s-1.3,1.9-1.3,3.09c0,.82.24,1.66.6,2.25.35.72.95,1.19,1.55,1.55.71.35,1.42.6,2.25.6.71,0,1.3-.13,1.9-.35.6-.24,1.19-.72,1.9-1.42l1.66,1.77c-.95.95-1.9,1.55-2.72,1.9-.82.24-1.77.48-2.85.48-2.03,0-3.67-.6-4.88-1.9-1.3-1.3-1.9-2.85-1.9-4.88,0-1.3.23-2.38.82-3.45.6-.95,1.42-1.77,2.5-2.38s2.25-.95,3.45-.95c1.08,0,2.14.23,3.09.72,1.08.48,1.9,1.08,2.61,1.9"/><path class="cls-1" d="m21.36,16.5h2.38v9.5h-2.38v-.95c-.48.48-.95.72-1.43.95-.48.24-.95.24-1.55.24-1.19,0-2.25-.48-3.2-1.42-.95-.95-1.3-2.13-1.3-3.56s.48-2.72,1.3-3.56c.82-.95,1.9-1.43,3.2-1.43.6,0,1.08.13,1.67.35.48.23.95.6,1.43.95v-1.08h-.13,0Zm-2.61,2.03c-.72,0-1.3.23-1.77.82-.48.48-.72,1.19-.72,2.03s.23,1.55.72,2.03c.48.48,1.08.82,1.77.82s1.43-.24,1.9-.82c.48-.48.72-1.19.72-2.03s-.24-1.55-.72-2.03c-.48-.6-1.08-.82-1.9-.82"/><path class="cls-1" d="m31.93,17.81l-1.42,1.55c-.6-.6-1.19-.95-1.66-.95-.24,0-.48,0-.6.13s-.24.23-.24.48c0,.13,0,.23.13.35s.35.24.72.48l.82.48c.95.48,1.55.95,1.9,1.43s.48,1.08.48,1.66c0,.82-.35,1.55-.95,2.13s-1.42.82-2.5.82c-1.42,0-2.5-.6-3.33-1.66l1.42-1.55c.24.35.6.6.95.82s.72.35.95.35c.35,0,.6-.13.72-.24.24-.13.24-.35.24-.48,0-.35-.35-.72-1.08-1.08l-.82-.35c-1.19-1.08-1.9-2.03-1.9-3.2,0-.72.24-1.43.82-1.9.6-.48,1.3-.82,2.25-.82.6,0,1.19.13,1.77.35.48.35.95.72,1.3,1.19"/><rect class="cls-1" x="33.71" y="16.5" width="2.38" height="9.5"/><path class="cls-1" d="m38.34,16.5h2.38v.95c.6-.48,1.08-.82,1.42-.95.48-.23.82-.23,1.3-.23.95,0,1.77.35,2.38.95s.82,1.43.82,2.5v6.3h-2.38v-4.15c0-1.19,0-1.9-.13-2.25s-.24-.72-.47-.82c-.24-.23-.6-.23-.95-.23-.48,0-.95.13-1.19.48-.35.35-.6.72-.71,1.3-.13.35-.13.95-.13,1.9v3.8h-2.38v-9.53h.03Z"/><path class="cls-1" d="m53.54,16.28c.95,0,1.77.23,2.5.72.82.48,1.42,1.08,1.9,1.77.47.71.71,1.55.71,2.5s-.24,1.77-.71,2.5c-.47.82-1.08,1.42-1.77,1.77-.71.48-1.67.72-2.5.72-1.3,0-2.5-.48-3.45-1.42-.95-.95-1.42-2.13-1.42-3.56,0-1.55.6-2.72,1.67-3.67.72-.82,1.77-1.3,3.09-1.3m0,2.25c-.71,0-1.3.23-1.9.82-.47.48-.71,1.19-.71,2.03s.24,1.55.71,2.03c.47.48,1.08.72,1.9.72.71,0,1.42-.24,1.9-.82.47-.48.71-1.19.71-2.03s-.24-1.43-.71-2.03c-.47-.48-1.19-.72-1.9-.72"/><polygon class="cls-1" points="62.56 13.17 64.94 13.17 67.91 22.09 70.88 13.17 73.26 13.17 75.39 26 73.01 26 71.71 17.92 68.98 26 66.84 26 64.11 17.92 62.69 26 60.31 26 62.56 13.17"/><path class="cls-1" d="m84.18,16.5h2.38v9.5h-2.38v-.95c-.47.48-.95.72-1.42.95-.47.24-.95.24-1.55.24-1.19,0-2.25-.48-3.2-1.42-.95-.95-1.3-2.13-1.3-3.56s.47-2.72,1.3-3.56c.82-.95,1.9-1.43,3.2-1.43.6,0,1.08.13,1.67.35.47.23.95.6,1.42.95v-1.08s-.13,0-.13,0Zm-2.5,2.03c-.71,0-1.3.23-1.77.82-.47.48-.71,1.19-.71,2.03s.23,1.55.71,2.03c.47.48,1.08.82,1.77.82s1.42-.24,1.9-.82c.47-.48.71-1.19.71-2.03s-.23-1.55-.71-2.03c-.6-.6-1.19-.82-1.9-.82"/><polygon class="cls-1" points="88.1 16.5 90.83 16.5 92.73 19.13 94.63 16.5 97.36 16.5 94.16 21.03 97.71 26 94.99 26 92.73 22.93 90.47 26 87.74 26 91.31 21.03 88.1 16.5"/><path class="cls-1" d="m99.86,12.59c.47,0,.82.13,1.08.48.35.35.47.72.47,1.08,0,.48-.13.82-.47,1.08-.23.35-.6.48-1.08.48s-.82-.13-1.08-.48c-.35-.35-.47-.72-.47-1.08,0-.48.13-.82.47-1.08.35-.35.71-.48,1.08-.48m-1.19,3.93h2.38v9.5h-2.38v-9.5Z"/></g></g></g></svg>